<?xml version="1.0" encoding="UTF-8"?>
<svg width="391px" height="59px" viewBox="0 0 391 59" version="1.1" xmlns="http://www.w3.org/2000/svg" xmlns:xlink="http://www.w3.org/1999/xlink">
    <!-- Generator: Sketch 46.2 (44496) - http://www.bohemiancoding.com/sketch -->
    <title>Group</title>
    <desc>Created with Sketch.</desc>
    <defs></defs>
    <g id="Page-1" stroke="none" stroke-width="1" fill="none" fill-rule="evenodd">
        <g id="Eleven8Eighty8_logo_colour_option1" transform="translate(-53.000000, -219.000000)" fill="#2E3333">
            <g id="Group" transform="translate(53.000000, 219.000000)">
                <polygon id="Fill-5" points="11.688 25.743 26.256 25.743 26.256 20.296 11.688 20.296"></polygon>
                <polygon id="Fill-6" points="11.688 6.942 30.309 6.942 30.309 1.494 11.688 1.494"></polygon>
                <g id="Group-2">
                    <polyline id="Fill-4" points="43.436 1.494 34.267 1.494 34.267 7.281 37.817 7.281 37.817 39.098 34.267 39.098 34.267 44.545 46.873 44.545 46.873 39.098 43.436 39.098 43.436 1.494"></polyline>
                    <polyline id="Fill-7" points="9.447 1.494 0.274 1.494 0.274 7.281 3.826 7.281 3.826 39.098 0.274 39.098 0.274 44.545 12.881 44.545 12.881 39.098 9.447 39.098 9.447 1.494"></polyline>
                    <polygon id="Fill-8" points="15.294 44.545 30.31 44.545 30.31 39.098 15.294 39.098"></polygon>
                    <path d="M52.377,27.691 C53.468,23.848 56.791,21.041 60.862,21.041 C64.933,21.041 68.43,23.907 69.46,27.691 L52.377,27.691 Z M60.862,15.823 C53.239,15.823 46.873,22.246 46.873,30.271 C46.873,38.293 53.239,44.662 60.862,44.662 C65.909,44.662 70.319,42.078 72.789,37.953 L65.681,37.953 C64.358,38.923 62.751,39.444 60.862,39.444 C56.848,39.444 53.414,36.689 52.377,32.791 L74.736,32.791 C74.907,32.049 74.964,31.244 74.964,30.271 C74.964,22.246 68.658,15.823 60.862,15.823 L60.862,15.823 Z" id="Fill-9"></path>
                    <polyline id="Fill-10" points="102.594 21.099 102.594 15.88 90.326 15.88 90.326 21.099 93.48 21.099 88.894 31.476 84.309 21.041 87.688 21.041 87.688 15.823 74.964 15.823 74.964 21.041 78.804 21.041 86.658 39.269 82.758 39.269 82.758 44.545 94.971 44.545 94.971 39.269 91.128 39.269 98.984 21.099 102.594 21.099"></polyline>
                    <path d="M108.095,27.691 C109.188,23.848 112.511,21.041 116.582,21.041 C120.652,21.041 124.147,23.907 125.181,27.691 L108.095,27.691 Z M116.582,15.823 C108.959,15.823 102.594,22.246 102.594,30.271 C102.594,38.293 108.959,44.662 116.582,44.662 C121.626,44.662 126.04,42.078 128.507,37.953 L121.397,37.953 C120.079,38.923 118.472,39.444 116.582,39.444 C112.567,39.444 109.128,36.689 108.095,32.791 L130.453,32.791 C130.627,32.049 130.685,31.244 130.685,30.271 C130.685,22.246 124.379,15.823 116.582,15.823 L116.582,15.823 Z" id="Fill-11"></path>
                    <path d="M162.252,29.184 C162.08,26.831 161.396,24.65 160.245,22.703 C157.839,18.577 153.593,15.823 148.72,15.823 C145.8,15.823 143.051,16.857 140.815,18.577 L140.815,15.823 L131.643,15.823 L131.643,21.615 L135.138,21.615 L135.138,39.041 L131.643,39.041 L131.643,44.545 L144.256,44.545 L144.256,39.041 L140.815,39.041 L140.815,26.885 C142.074,23.563 145.169,21.156 148.72,21.156 C152.623,21.156 155.948,23.964 157.036,27.808 L157.036,39.041 L153.254,39.041 L153.254,44.545 L166.034,44.545 L166.034,39.041 L162.252,39.041 L162.252,29.184" id="Fill-12"></path>
                    <polyline id="Fill-13" points="248.292 15.94 239.121 15.94 239.121 21.615 242.729 21.615 242.729 39.158 239.121 39.158 239.121 44.599 251.844 44.599 251.844 39.158 248.292 39.158 248.292 15.94"></polyline>
                    <path d="M245.481,9.863 C247.025,9.863 248.292,8.603 248.292,7.053 C248.292,5.563 247.025,4.304 245.481,4.304 C243.93,4.304 242.729,5.563 242.729,7.053 C242.729,8.603 243.93,9.863 245.481,9.863" id="Fill-14"></path>
                    <path d="M274.66,31.302 C274.603,31.758 274.543,32.221 274.374,32.681 C273.911,34.396 272.941,35.947 271.622,37.091 C270.071,38.409 268.067,39.269 265.89,39.269 C263.769,39.269 261.876,38.525 260.386,37.262 C259.01,36.175 257.976,34.688 257.402,32.963 C257.116,32.049 256.945,31.13 256.945,30.097 C256.945,25.053 260.959,20.925 265.89,20.925 C270.417,20.925 274.143,24.421 274.66,28.895 L274.66,31.302 Z M277.525,15.712 L274.66,15.712 L274.66,18.917 C272.25,16.91 269.213,15.712 265.89,15.712 C258.15,15.712 251.844,22.129 251.844,30.097 C251.844,32.735 252.59,35.255 253.794,37.379 C254.765,39.098 256.029,40.531 257.577,41.679 C259.869,43.457 262.732,44.489 265.89,44.489 C269.155,44.489 272.195,43.34 274.543,41.394 C274.603,41.333 274.66,41.333 274.66,41.277 L274.66,46.724 C273.63,50.566 270.188,53.432 266.118,53.432 C262.104,53.432 258.667,50.677 257.577,46.898 L254.481,52.284 C257.002,56.124 261.245,58.645 266.118,58.645 C269.33,58.645 272.307,57.503 274.66,55.608 C277.982,53.03 280.107,48.899 280.107,44.26 L280.107,21.27 L283.949,21.27 L283.949,15.712 L277.525,15.712 L277.525,15.712 Z" id="Fill-15"></path>
                    <path d="M314.616,29.067 C314.444,26.774 313.757,24.592 312.668,22.703 C310.262,18.635 306.073,15.94 301.318,15.94 C298.277,15.94 295.468,17.028 293.233,18.864 L293.233,0.975 L283.949,0.975 L283.949,6.596 L287.617,6.596 L287.617,39.158 L284.12,39.158 L284.12,44.545 L296.729,44.545 L296.729,39.158 L293.233,39.158 L293.233,27.633 C294.323,23.907 297.532,21.216 301.318,21.216 C305.158,21.216 308.369,23.907 309.457,27.691 L309.457,39.158 L305.902,39.158 L305.902,44.545 L318.458,44.545 L318.458,39.158 L314.616,39.158 L314.616,29.067" id="Fill-17"></path>
                    <polyline id="Fill-18" points="329.298 1.606 320.186 1.606 320.186 7.399 323.74 7.399 323.794 15.652 316.746 15.652 316.746 21.27 323.794 21.27 323.794 44.545 332.91 44.545 332.91 39.098 329.358 39.098 329.358 21.27 336.406 21.27 336.406 15.652 329.358 15.652 329.298 1.606"></polyline>
                    <path d="M201.745,27.167 L195.541,27.167 C196.722,28.252 197.56,29.733 197.854,31.418 C198.311,35.255 195.502,38.813 191.548,39.444 C191.374,39.498 191.034,39.561 190.515,39.561 C186.675,39.561 183.463,36.631 183.178,33.021 C183.052,30.265 184.434,27.766 186.711,26.393 C185.611,26.073 183.671,25.296 182.036,23.505 C179.594,25.765 178.076,28.958 178.076,32.449 L178.076,33.08 C178.133,33.254 178.133,33.483 178.133,33.882 C178.878,39.843 184.097,44.545 190.515,44.545 C197.28,44.545 202.839,39.326 203.013,32.735 C203.013,32.049 202.898,31.418 202.839,30.671 C202.655,29.411 202.277,28.243 201.745,27.167" id="Fill-19"></path>
                    <path d="M367.448,25.401 C367.448,25.404 367.448,25.404 367.448,25.404 L376.116,25.404 C376.116,25.404 376.118,25.404 376.118,25.401 L378.114,25.401 L378.114,25.404 C381.61,25.404 384.666,22.358 384.666,22.358 C386.21,20.813 387.244,18.806 387.645,16.571 L387.645,16.282 C387.7,15.823 387.7,15.309 387.7,14.909 C387.7,9.634 383.976,5.274 378.99,4.532 L378.99,4.472 L378.646,4.472 C378.36,4.472 378.126,4.362 377.843,4.362 L377.44,4.362 C377.212,4.362 377.039,4.472 376.866,4.472 C372.111,4.76 368.496,8.315 367.583,13.074 L367.583,13.531 C367.52,13.704 367.466,13.876 367.466,14.108 L367.466,14.909 C367.391,16.198 367.599,17.406 368.019,18.53 L373.713,18.53 C372.809,17.547 372.282,16.229 372.282,14.792 L372.282,14.507 C372.282,14.335 372.34,14.279 372.34,14.108 L372.34,14.044 C372.738,11.353 374.749,9.517 377.212,9.345 L378.243,9.345 C380.938,9.745 382.945,11.983 382.945,14.909 C382.945,15.077 382.83,15.309 382.83,15.595 C382.432,18.175 380.425,20.011 378.126,20.296 L358.134,20.296 L353.096,31.648 L346.104,15.88 L338.647,15.88 L338.647,21.156 L342.836,21.156 L350.229,38.293 L343.695,53.372 L338.647,53.372 L338.647,58.702 L347.136,58.702 L361.473,25.401 L367.448,25.401" id="Fill-20"></path>
                    <path d="M386.094,23.505 C384.459,25.296 382.515,26.073 381.416,26.393 C383.696,27.766 385.078,30.265 384.952,33.021 C384.666,36.631 381.455,39.561 377.612,39.561 C377.095,39.561 376.756,39.498 376.581,39.444 C372.628,38.813 369.818,35.255 370.275,31.418 C370.57,29.733 371.404,28.252 372.589,27.167 L366.385,27.167 C365.853,28.243 365.475,29.411 365.291,30.671 C365.231,31.418 365.116,32.049 365.116,32.735 C365.291,39.326 370.85,44.545 377.612,44.545 C384.032,44.545 389.252,39.843 389.996,33.882 C389.996,33.483 389.996,33.254 390.054,33.08 L390.054,32.449 C390.054,28.958 388.536,25.765 386.094,23.505" id="Fill-21"></path>
                    <path d="M206.156,7.11 L210.284,7.11 L210.284,20.296 L190.004,20.296 C187.705,20.011 185.698,18.175 185.299,15.595 C185.299,15.309 185.185,15.077 185.185,14.909 C185.185,11.983 187.191,9.745 189.887,9.345 L190.917,9.345 C193.381,9.517 195.388,11.353 195.79,14.044 L195.79,14.108 C195.79,14.279 195.848,14.335 195.848,14.507 L195.848,14.792 C195.848,16.229 195.321,17.547 194.417,18.53 L200.111,18.53 C200.531,17.406 200.739,16.198 200.663,14.909 L200.663,14.108 C200.663,13.876 200.609,13.704 200.546,13.531 L200.546,13.074 C199.634,8.315 196.019,4.76 191.263,4.472 C191.092,4.472 190.917,4.362 190.688,4.362 L190.286,4.362 C190.004,4.362 189.77,4.472 189.483,4.472 L189.139,4.472 L189.139,4.532 C184.154,5.274 180.429,9.634 180.429,14.909 C180.429,15.309 180.429,15.823 180.486,16.282 L180.486,16.571 C180.885,18.806 181.919,20.813 183.463,22.358 C183.463,22.358 186.519,25.404 190.016,25.404 L190.019,25.401 L192.011,25.401 C192.011,25.404 192.014,25.404 192.014,25.404 L200.682,25.404 C200.682,25.404 200.682,25.404 200.682,25.401 L210.284,25.401 L210.284,38.756 L205.984,38.756 L205.984,44.489 L236.022,44.545 L236.022,38.756 L216.188,38.756 L216.188,25.401 L231.724,25.401 L231.724,20.296 L216.188,20.296 L216.188,7.11 L236.083,7.11 L236.083,1.377 L206.156,1.377 L206.156,7.11" id="Fill-22"></path>
                </g>
            </g>
        </g>
    </g>
</svg>